# xmcd
#
# Track frame offsets: 
#        150
#        14478
#        30749
#        47725
#        65360
#        83482
#        98946
#        113313
#        130529
#
# Disc length: 1961 seconds
#
# Revision: 1
# Processed by: cddbd v1.5.2PL0 Copyright (c) Steve Scherf et al.
# Submitted via: ExactAudioCopy v1.0b3
#
DISCID=6207a709
DTITLE=Autumn Hill - Favourite Mistake
DYEAR=2013
DGENRE=Country
TTITLE0=Can’t Keep Waiting
TTITLE1=If She Wants This Town
TTITLE2=Anything At All
TTITLE3=Spaceman
TTITLE4=Fire
TTITLE5=Something to Remember You By
TTITLE6=Favourite Mistake
TTITLE7=Battle Scars
TTITLE8=Anything At All (Acoustic)
EXTD=
EXTT0=
EXTT1=
EXTT2=
EXTT3=
EXTT4=
EXTT5=
EXTT6=
EXTT7=
EXTT8=
PLAYORDER=
